<mxfile host="app.diagrams.net" modified="2022-08-29T14:35:39.197Z" agent="5.0 (Macintosh; Intel Mac OS X 10_15_7) AppleWebKit/537.36 (KHTML, like Gecko) Chrome/102.0.5005.167 YaBrowser/22.7.3.796 Yowser/2.5 Safari/537.36" etag="YlVeUUZ82GCKyCGmRYG5" version="20.2.7" type="github">
  <diagram id="XsnP9Gn-Je08Z1eBndXY" name="Страница 1">
    <mxGraphModel dx="1051" dy="640" grid="1" gridSize="10" guides="1" tooltips="1" connect="1" arrows="1" fold="1" page="1" pageScale="1" pageWidth="827" pageHeight="1169" math="0" shadow="0">
      <root>
        <mxCell id="0" />
        <mxCell id="1" parent="0" />
        <mxCell id="HoDFq3KGy2173wUJEBys-3" value="" style="html=1;" parent="1" vertex="1">
          <mxGeometry x="200" y="60" width="510" height="610" as="geometry" />
        </mxCell>
        <mxCell id="HoDFq3KGy2173wUJEBys-5" style="edgeStyle=orthogonalEdgeStyle;rounded=0;orthogonalLoop=1;jettySize=auto;html=1;exitX=1;exitY=0.3333333333333333;exitDx=0;exitDy=0;exitPerimeter=0;endArrow=none;endFill=0;entryX=0;entryY=0.5;entryDx=0;entryDy=0;" parent="1" source="HoDFq3KGy2173wUJEBys-1" target="HoDFq3KGy2173wUJEBys-4" edge="1">
          <mxGeometry relative="1" as="geometry">
            <mxPoint x="260" y="190" as="targetPoint" />
          </mxGeometry>
        </mxCell>
        <mxCell id="HoDFq3KGy2173wUJEBys-1" value="Новый клиент" style="shape=umlActor;verticalLabelPosition=bottom;verticalAlign=top;html=1;" parent="1" vertex="1">
          <mxGeometry x="100" y="90" width="30" height="60" as="geometry" />
        </mxCell>
        <mxCell id="HoDFq3KGy2173wUJEBys-8" value="" style="edgeStyle=orthogonalEdgeStyle;rounded=0;orthogonalLoop=1;jettySize=auto;html=1;endArrow=none;endFill=0;dashed=1;startArrow=classic;startFill=1;entryX=0;entryY=0.5;entryDx=0;entryDy=0;" parent="1" source="HoDFq3KGy2173wUJEBys-4" target="HoDFq3KGy2173wUJEBys-7" edge="1">
          <mxGeometry relative="1" as="geometry" />
        </mxCell>
        <mxCell id="HoDFq3KGy2173wUJEBys-31" value="extends" style="edgeLabel;html=1;align=center;verticalAlign=middle;resizable=0;points=[];" parent="HoDFq3KGy2173wUJEBys-8" vertex="1" connectable="0">
          <mxGeometry x="-0.4357" y="-3" relative="1" as="geometry">
            <mxPoint y="1" as="offset" />
          </mxGeometry>
        </mxCell>
        <mxCell id="HoDFq3KGy2173wUJEBys-39" value="extends" style="edgeStyle=orthogonalEdgeStyle;rounded=0;orthogonalLoop=1;jettySize=auto;html=1;startArrow=classic;startFill=1;endArrow=none;endFill=0;dashed=1;" parent="1" source="HoDFq3KGy2173wUJEBys-4" target="HoDFq3KGy2173wUJEBys-38" edge="1">
          <mxGeometry relative="1" as="geometry" />
        </mxCell>
        <mxCell id="HoDFq3KGy2173wUJEBys-4" value="Обращение" style="ellipse;whiteSpace=wrap;html=1;" parent="1" vertex="1">
          <mxGeometry x="240" y="150" width="140" height="70" as="geometry" />
        </mxCell>
        <mxCell id="HoDFq3KGy2173wUJEBys-6" value="System" style="text;strokeColor=none;fillColor=none;align=left;verticalAlign=top;spacingLeft=4;spacingRight=4;overflow=hidden;rotatable=0;points=[[0,0.5],[1,0.5]];portConstraint=eastwest;" parent="1" vertex="1">
          <mxGeometry x="380" y="30" width="100" height="26" as="geometry" />
        </mxCell>
        <mxCell id="HoDFq3KGy2173wUJEBys-34" value="" style="edgeStyle=orthogonalEdgeStyle;rounded=0;orthogonalLoop=1;jettySize=auto;html=1;startArrow=none;startFill=0;endArrow=classic;endFill=1;dashed=1;" parent="1" source="HoDFq3KGy2173wUJEBys-7" target="HoDFq3KGy2173wUJEBys-33" edge="1">
          <mxGeometry relative="1" as="geometry" />
        </mxCell>
        <mxCell id="HoDFq3KGy2173wUJEBys-35" value="inclide" style="edgeLabel;html=1;align=center;verticalAlign=middle;resizable=0;points=[];" parent="HoDFq3KGy2173wUJEBys-34" vertex="1" connectable="0">
          <mxGeometry x="-0.2857" y="3" relative="1" as="geometry">
            <mxPoint y="1" as="offset" />
          </mxGeometry>
        </mxCell>
        <mxCell id="HoDFq3KGy2173wUJEBys-7" value="Заполнение CRM-формы" style="ellipse;whiteSpace=wrap;html=1;" parent="1" vertex="1">
          <mxGeometry x="344" y="70" width="140" height="70" as="geometry" />
        </mxCell>
        <mxCell id="HoDFq3KGy2173wUJEBys-10" style="edgeStyle=orthogonalEdgeStyle;rounded=0;orthogonalLoop=1;jettySize=auto;html=1;endArrow=classic;endFill=1;entryX=0.5;entryY=1;entryDx=0;entryDy=0;dashed=1;startArrow=none;startFill=0;" parent="1" source="HoDFq3KGy2173wUJEBys-9" target="HoDFq3KGy2173wUJEBys-4" edge="1">
          <mxGeometry relative="1" as="geometry" />
        </mxCell>
        <mxCell id="HoDFq3KGy2173wUJEBys-32" value="extends" style="edgeLabel;html=1;align=center;verticalAlign=middle;resizable=0;points=[];" parent="HoDFq3KGy2173wUJEBys-10" vertex="1" connectable="0">
          <mxGeometry x="-0.4324" y="-2" relative="1" as="geometry">
            <mxPoint as="offset" />
          </mxGeometry>
        </mxCell>
        <mxCell id="HoDFq3KGy2173wUJEBys-30" style="edgeStyle=orthogonalEdgeStyle;rounded=0;orthogonalLoop=1;jettySize=auto;html=1;exitX=0.5;exitY=1;exitDx=0;exitDy=0;startArrow=none;startFill=0;endArrow=none;endFill=0;" parent="1" source="HoDFq3KGy2173wUJEBys-9" target="HoDFq3KGy2173wUJEBys-11" edge="1">
          <mxGeometry relative="1" as="geometry" />
        </mxCell>
        <mxCell id="HoDFq3KGy2173wUJEBys-9" value="Звонок по телефону" style="ellipse;whiteSpace=wrap;html=1;" parent="1" vertex="1">
          <mxGeometry x="470" y="200" width="140" height="70" as="geometry" />
        </mxCell>
        <mxCell id="HoDFq3KGy2173wUJEBys-11" value="Создание карточки лида для нового клиента" style="ellipse;whiteSpace=wrap;html=1;" parent="1" vertex="1">
          <mxGeometry x="280" y="270" width="140" height="70" as="geometry" />
        </mxCell>
        <mxCell id="HoDFq3KGy2173wUJEBys-25" style="edgeStyle=orthogonalEdgeStyle;rounded=0;orthogonalLoop=1;jettySize=auto;html=1;exitX=0;exitY=0.3333333333333333;exitDx=0;exitDy=0;exitPerimeter=0;entryX=1;entryY=0.5;entryDx=0;entryDy=0;startArrow=none;startFill=0;endArrow=none;endFill=0;" parent="1" source="HoDFq3KGy2173wUJEBys-14" target="HoDFq3KGy2173wUJEBys-11" edge="1">
          <mxGeometry relative="1" as="geometry">
            <Array as="points">
              <mxPoint x="750" y="220" />
              <mxPoint x="640" y="220" />
              <mxPoint x="640" y="320" />
              <mxPoint x="420" y="320" />
            </Array>
          </mxGeometry>
        </mxCell>
        <mxCell id="HoDFq3KGy2173wUJEBys-27" style="edgeStyle=orthogonalEdgeStyle;rounded=0;orthogonalLoop=1;jettySize=auto;html=1;exitX=0;exitY=1;exitDx=0;exitDy=0;exitPerimeter=0;entryX=1;entryY=0.5;entryDx=0;entryDy=0;startArrow=none;startFill=0;endArrow=none;endFill=0;" parent="1" source="HoDFq3KGy2173wUJEBys-14" target="HoDFq3KGy2173wUJEBys-26" edge="1">
          <mxGeometry relative="1" as="geometry" />
        </mxCell>
        <mxCell id="HoDFq3KGy2173wUJEBys-14" value="Bitrix24" style="shape=umlActor;verticalLabelPosition=bottom;verticalAlign=top;html=1;" parent="1" vertex="1">
          <mxGeometry x="750" y="220" width="30" height="60" as="geometry" />
        </mxCell>
        <mxCell id="HoDFq3KGy2173wUJEBys-24" style="edgeStyle=orthogonalEdgeStyle;rounded=0;orthogonalLoop=1;jettySize=auto;html=1;exitX=1;exitY=0.3333333333333333;exitDx=0;exitDy=0;exitPerimeter=0;entryX=0;entryY=0.5;entryDx=0;entryDy=0;startArrow=none;startFill=0;endArrow=none;endFill=0;" parent="1" source="HoDFq3KGy2173wUJEBys-20" target="HoDFq3KGy2173wUJEBys-23" edge="1">
          <mxGeometry relative="1" as="geometry" />
        </mxCell>
        <mxCell id="HoDFq3KGy2173wUJEBys-20" value="Старый клиент" style="shape=umlActor;verticalLabelPosition=bottom;verticalAlign=top;html=1;" parent="1" vertex="1">
          <mxGeometry x="100" y="220" width="30" height="60" as="geometry" />
        </mxCell>
        <mxCell id="HoDFq3KGy2173wUJEBys-29" value="" style="edgeStyle=orthogonalEdgeStyle;rounded=0;orthogonalLoop=1;jettySize=auto;html=1;startArrow=none;startFill=0;endArrow=none;endFill=0;" parent="1" source="HoDFq3KGy2173wUJEBys-23" target="HoDFq3KGy2173wUJEBys-28" edge="1">
          <mxGeometry relative="1" as="geometry" />
        </mxCell>
        <mxCell id="HoDFq3KGy2173wUJEBys-23" value="Обращение" style="ellipse;whiteSpace=wrap;html=1;" parent="1" vertex="1">
          <mxGeometry x="240" y="410" width="140" height="70" as="geometry" />
        </mxCell>
        <mxCell id="HoDFq3KGy2173wUJEBys-26" value="Запись формы или звонка в карточке контакта старого клинта" style="ellipse;whiteSpace=wrap;html=1;" parent="1" vertex="1">
          <mxGeometry x="340" y="350" width="190" height="70" as="geometry" />
        </mxCell>
        <mxCell id="HoDFq3KGy2173wUJEBys-28" value="Чат" style="ellipse;whiteSpace=wrap;html=1;" parent="1" vertex="1">
          <mxGeometry x="420" y="440" width="140" height="70" as="geometry" />
        </mxCell>
        <mxCell id="HoDFq3KGy2173wUJEBys-36" style="edgeStyle=orthogonalEdgeStyle;rounded=0;orthogonalLoop=1;jettySize=auto;html=1;exitX=0.5;exitY=1;exitDx=0;exitDy=0;startArrow=none;startFill=0;endArrow=classic;endFill=1;" parent="1" source="HoDFq3KGy2173wUJEBys-33" target="HoDFq3KGy2173wUJEBys-11" edge="1">
          <mxGeometry relative="1" as="geometry">
            <Array as="points">
              <mxPoint x="630" y="290" />
            </Array>
          </mxGeometry>
        </mxCell>
        <mxCell id="HoDFq3KGy2173wUJEBys-37" value="Include" style="edgeLabel;html=1;align=center;verticalAlign=middle;resizable=0;points=[];" parent="HoDFq3KGy2173wUJEBys-36" vertex="1" connectable="0">
          <mxGeometry x="0.2979" y="-2" relative="1" as="geometry">
            <mxPoint as="offset" />
          </mxGeometry>
        </mxCell>
        <mxCell id="HoDFq3KGy2173wUJEBys-33" value="Заполнение обязательных полей" style="ellipse;whiteSpace=wrap;html=1;" parent="1" vertex="1">
          <mxGeometry x="560" y="70" width="140" height="70" as="geometry" />
        </mxCell>
        <mxCell id="HoDFq3KGy2173wUJEBys-38" value="Обращение в чат" style="ellipse;whiteSpace=wrap;html=1;" parent="1" vertex="1">
          <mxGeometry x="450" y="120" width="140" height="70" as="geometry" />
        </mxCell>
        <mxCell id="HoDFq3KGy2173wUJEBys-43" style="edgeStyle=orthogonalEdgeStyle;rounded=0;orthogonalLoop=1;jettySize=auto;html=1;exitX=1;exitY=0.3333333333333333;exitDx=0;exitDy=0;exitPerimeter=0;startArrow=none;startFill=0;endArrow=classic;endFill=1;" parent="1" source="HoDFq3KGy2173wUJEBys-40" target="HoDFq3KGy2173wUJEBys-42" edge="1">
          <mxGeometry relative="1" as="geometry" />
        </mxCell>
        <mxCell id="HoDFq3KGy2173wUJEBys-40" value="Менеджер отдела продаж" style="shape=umlActor;verticalLabelPosition=bottom;verticalAlign=top;html=1;" parent="1" vertex="1">
          <mxGeometry x="100" y="550" width="30" height="60" as="geometry" />
        </mxCell>
        <mxCell id="HoDFq3KGy2173wUJEBys-45" value="" style="edgeStyle=orthogonalEdgeStyle;rounded=0;orthogonalLoop=1;jettySize=auto;html=1;startArrow=classic;startFill=1;endArrow=none;endFill=0;dashed=1;" parent="1" source="HoDFq3KGy2173wUJEBys-42" target="HoDFq3KGy2173wUJEBys-44" edge="1">
          <mxGeometry relative="1" as="geometry" />
        </mxCell>
        <mxCell id="HoDFq3KGy2173wUJEBys-48" value="extends" style="edgeLabel;html=1;align=center;verticalAlign=middle;resizable=0;points=[];" parent="HoDFq3KGy2173wUJEBys-45" vertex="1" connectable="0">
          <mxGeometry x="0.3636" y="4" relative="1" as="geometry">
            <mxPoint as="offset" />
          </mxGeometry>
        </mxCell>
        <mxCell id="HoDFq3KGy2173wUJEBys-42" value="Перемещение по воронке лидов" style="ellipse;whiteSpace=wrap;html=1;" parent="1" vertex="1">
          <mxGeometry x="230" y="540" width="140" height="70" as="geometry" />
        </mxCell>
        <mxCell id="HoDFq3KGy2173wUJEBys-44" value="Лид проигран" style="ellipse;whiteSpace=wrap;html=1;" parent="1" vertex="1">
          <mxGeometry x="560" y="510" width="140" height="70" as="geometry" />
        </mxCell>
        <mxCell id="HoDFq3KGy2173wUJEBys-46" value="Создание сделки" style="ellipse;whiteSpace=wrap;html=1;" parent="1" vertex="1">
          <mxGeometry x="520" y="585" width="140" height="70" as="geometry" />
        </mxCell>
        <mxCell id="HoDFq3KGy2173wUJEBys-47" value="" style="edgeStyle=orthogonalEdgeStyle;rounded=0;orthogonalLoop=1;jettySize=auto;html=1;startArrow=classic;startFill=1;endArrow=none;endFill=0;dashed=1;entryX=0;entryY=0.5;entryDx=0;entryDy=0;" parent="1" source="HoDFq3KGy2173wUJEBys-42" target="HoDFq3KGy2173wUJEBys-46" edge="1">
          <mxGeometry relative="1" as="geometry">
            <mxPoint x="380" y="585" as="sourcePoint" />
            <mxPoint x="440" y="560" as="targetPoint" />
          </mxGeometry>
        </mxCell>
        <mxCell id="HoDFq3KGy2173wUJEBys-49" value="extends" style="edgeLabel;html=1;align=center;verticalAlign=middle;resizable=0;points=[];" parent="HoDFq3KGy2173wUJEBys-47" vertex="1" connectable="0">
          <mxGeometry x="0.6205" y="1" relative="1" as="geometry">
            <mxPoint as="offset" />
          </mxGeometry>
        </mxCell>
        <mxCell id="f1ICiX7RHzptKYZJ7hzD-1" value="Диаграмма вариантов использования" style="text;strokeColor=#b85450;fillColor=#f8cecc;align=left;verticalAlign=top;spacingLeft=4;spacingRight=4;overflow=hidden;rotatable=0;points=[[0,0.5],[1,0.5]];portConstraint=eastwest;" vertex="1" parent="1">
          <mxGeometry x="380" width="280" height="26" as="geometry" />
        </mxCell>
        <mxCell id="f1ICiX7RHzptKYZJ7hzD-2" value="Диаграмма взаимодействия отправка CRM Формы" style="text;strokeColor=#82b366;fillColor=#d5e8d4;align=left;verticalAlign=top;spacingLeft=4;spacingRight=4;overflow=hidden;rotatable=0;points=[[0,0.5],[1,0.5]];portConstraint=eastwest;" vertex="1" parent="1">
          <mxGeometry x="335" y="680" width="325" height="26" as="geometry" />
        </mxCell>
        <mxCell id="f1ICiX7RHzptKYZJ7hzD-3" value="Новый клиент" style="shape=umlActor;verticalLabelPosition=bottom;verticalAlign=top;html=1;" vertex="1" parent="1">
          <mxGeometry x="100" y="706" width="30" height="60" as="geometry" />
        </mxCell>
        <mxCell id="f1ICiX7RHzptKYZJ7hzD-4" value="" style="html=1;points=[];perimeter=orthogonalPerimeter;" vertex="1" parent="1">
          <mxGeometry x="110" y="800" width="10" height="340" as="geometry" />
        </mxCell>
        <mxCell id="f1ICiX7RHzptKYZJ7hzD-5" value="Сайт" style="html=1;" vertex="1" parent="1">
          <mxGeometry x="200" y="760" width="110" height="50" as="geometry" />
        </mxCell>
        <mxCell id="f1ICiX7RHzptKYZJ7hzD-6" value="" style="endArrow=none;html=1;rounded=0;dashed=1;entryX=0.5;entryY=1;entryDx=0;entryDy=0;startArrow=none;" edge="1" parent="1" source="f1ICiX7RHzptKYZJ7hzD-7" target="f1ICiX7RHzptKYZJ7hzD-5">
          <mxGeometry width="50" height="50" relative="1" as="geometry">
            <mxPoint x="260" y="1130" as="sourcePoint" />
            <mxPoint x="440" y="930" as="targetPoint" />
          </mxGeometry>
        </mxCell>
        <mxCell id="f1ICiX7RHzptKYZJ7hzD-7" value="" style="html=1;points=[];perimeter=orthogonalPerimeter;" vertex="1" parent="1">
          <mxGeometry x="250" y="850" width="10" height="90" as="geometry" />
        </mxCell>
        <mxCell id="f1ICiX7RHzptKYZJ7hzD-8" value="" style="endArrow=none;html=1;rounded=0;dashed=1;entryX=0.5;entryY=1;entryDx=0;entryDy=0;" edge="1" parent="1" target="f1ICiX7RHzptKYZJ7hzD-7">
          <mxGeometry width="50" height="50" relative="1" as="geometry">
            <mxPoint x="255" y="1140" as="sourcePoint" />
            <mxPoint x="255" y="810" as="targetPoint" />
          </mxGeometry>
        </mxCell>
        <mxCell id="f1ICiX7RHzptKYZJ7hzD-9" value="" style="endArrow=classic;html=1;rounded=0;entryX=-0.2;entryY=0.011;entryDx=0;entryDy=0;entryPerimeter=0;" edge="1" parent="1" target="f1ICiX7RHzptKYZJ7hzD-7">
          <mxGeometry width="50" height="50" relative="1" as="geometry">
            <mxPoint x="120" y="850" as="sourcePoint" />
            <mxPoint x="440" y="930" as="targetPoint" />
          </mxGeometry>
        </mxCell>
        <mxCell id="f1ICiX7RHzptKYZJ7hzD-10" value="1. Выбирает CRM-форму&amp;nbsp;" style="text;html=1;strokeColor=none;fillColor=none;align=center;verticalAlign=middle;whiteSpace=wrap;rounded=0;" vertex="1" parent="1">
          <mxGeometry x="120" y="820" width="140" height="30" as="geometry" />
        </mxCell>
        <mxCell id="f1ICiX7RHzptKYZJ7hzD-11" value="" style="endArrow=classic;html=1;rounded=0;entryX=-0.2;entryY=0.011;entryDx=0;entryDy=0;entryPerimeter=0;" edge="1" parent="1">
          <mxGeometry width="50" height="50" relative="1" as="geometry">
            <mxPoint x="120" y="939.01" as="sourcePoint" />
            <mxPoint x="248" y="940" as="targetPoint" />
          </mxGeometry>
        </mxCell>
        <mxCell id="f1ICiX7RHzptKYZJ7hzD-12" value="2. Заполняет CRM-форму&amp;nbsp;" style="text;html=1;strokeColor=none;fillColor=none;align=center;verticalAlign=middle;whiteSpace=wrap;rounded=0;" vertex="1" parent="1">
          <mxGeometry x="120" y="909.01" width="140" height="30" as="geometry" />
        </mxCell>
        <mxCell id="f1ICiX7RHzptKYZJ7hzD-13" value="Авторизация" style="html=1;" vertex="1" parent="1">
          <mxGeometry x="340" y="760" width="110" height="50" as="geometry" />
        </mxCell>
        <mxCell id="f1ICiX7RHzptKYZJ7hzD-14" value="" style="endArrow=classic;html=1;rounded=0;entryX=-0.2;entryY=0.011;entryDx=0;entryDy=0;entryPerimeter=0;" edge="1" parent="1">
          <mxGeometry width="50" height="50" relative="1" as="geometry">
            <mxPoint x="260.0000000000002" y="876" as="sourcePoint" />
            <mxPoint x="387.9999999999998" y="876.99" as="targetPoint" />
          </mxGeometry>
        </mxCell>
        <mxCell id="f1ICiX7RHzptKYZJ7hzD-15" value="1. 1. Открытие CRM-форму&amp;nbsp;" style="text;html=1;strokeColor=none;fillColor=none;align=center;verticalAlign=middle;whiteSpace=wrap;rounded=0;" vertex="1" parent="1">
          <mxGeometry x="260" y="845" width="140" height="30" as="geometry" />
        </mxCell>
        <mxCell id="f1ICiX7RHzptKYZJ7hzD-16" value="" style="endArrow=none;html=1;rounded=0;dashed=1;entryX=0.5;entryY=1;entryDx=0;entryDy=0;startArrow=none;" edge="1" parent="1" source="f1ICiX7RHzptKYZJ7hzD-17">
          <mxGeometry width="50" height="50" relative="1" as="geometry">
            <mxPoint x="400" y="1130" as="sourcePoint" />
            <mxPoint x="395" y="810" as="targetPoint" />
          </mxGeometry>
        </mxCell>
        <mxCell id="f1ICiX7RHzptKYZJ7hzD-17" value="" style="html=1;points=[];perimeter=orthogonalPerimeter;" vertex="1" parent="1">
          <mxGeometry x="390" y="880" width="10" height="60" as="geometry" />
        </mxCell>
        <mxCell id="f1ICiX7RHzptKYZJ7hzD-18" value="" style="endArrow=none;html=1;rounded=0;dashed=1;entryX=0.5;entryY=1;entryDx=0;entryDy=0;" edge="1" parent="1" target="f1ICiX7RHzptKYZJ7hzD-17">
          <mxGeometry width="50" height="50" relative="1" as="geometry">
            <mxPoint x="395" y="1140" as="sourcePoint" />
            <mxPoint x="395" y="810" as="targetPoint" />
          </mxGeometry>
        </mxCell>
        <mxCell id="f1ICiX7RHzptKYZJ7hzD-19" value="" style="endArrow=none;dashed=1;html=1;rounded=0;entryX=-0.156;entryY=0.981;entryDx=0;entryDy=0;entryPerimeter=0;exitX=1;exitY=1;exitDx=0;exitDy=0;startArrow=classic;startFill=1;" edge="1" parent="1" source="f1ICiX7RHzptKYZJ7hzD-12" target="f1ICiX7RHzptKYZJ7hzD-17">
          <mxGeometry width="50" height="50" relative="1" as="geometry">
            <mxPoint x="310" y="900" as="sourcePoint" />
            <mxPoint x="360" y="850" as="targetPoint" />
          </mxGeometry>
        </mxCell>
      </root>
    </mxGraphModel>
  </diagram>
</mxfile>
